<?xml version="1.0" encoding="UTF-8" standalone="no"?>
<!-- Created with Inkscape (http://www.inkscape.org/) -->

<svg
   xmlns:dc="http://purl.org/dc/elements/1.1/"
   xmlns:cc="http://creativecommons.org/ns#"
   xmlns:rdf="http://www.w3.org/1999/02/22-rdf-syntax-ns#"
   xmlns:svg="http://www.w3.org/2000/svg"
   xmlns="http://www.w3.org/2000/svg"
   version="1.2"
   width="488.55237"
   height="101.4132"
   id="svg2">
  <metadata
     id="metadata8">
    <rdf:RDF>
      <cc:Work
         rdf:about="">
        <dc:format>image/svg+xml</dc:format>
        <dc:type
           rdf:resource="http://purl.org/dc/dcmitype/StillImage" />
        <dc:title></dc:title>
      </cc:Work>
    </rdf:RDF>
  </metadata>
  <defs
     id="defs6" />
  <g
     id="g3852">
    <path
       d="m 343.95861,1.0772542 -24.71875,47.5312498 26.375,50.03125 142.9375,0 0,-97.5624998 z"
       id="rect2992"
       style="fill:#ffe214;fill-opacity:1;stroke:none" />
    <path
       d="m 19.059484,99.71701 0,-43.919681 33.285042,0 0,-16.021015 -33.285042,0 0,-23.7553 44.47213,0 0,-16.0210155058577 -63.53161381882502,0 0,99.7170115058577 z"
       id="path3816"
       style="font-size:138.11398315px;font-style:normal;font-variant:normal;font-weight:bold;font-stretch:normal;text-align:start;line-height:100%;writing-mode:lr-tb;text-anchor:start;fill:#ffffff;fill-opacity:1;stroke:none;font-family:Trade Gothic LT Std;-inkscape-font-specification:Trade Gothic LT Std Bold" />
    <path
       d="m 143.46436,99.71701 0,-16.021015 -43.36723,0 0,-83.6959965058577 -19.059486,0 0,99.7170115058577 z"
       id="path3818"
       style="font-size:138.11398315px;font-style:normal;font-variant:normal;font-weight:bold;font-stretch:normal;text-align:start;line-height:100%;writing-mode:lr-tb;text-anchor:start;fill:#ffffff;fill-opacity:1;stroke:none;font-family:Trade Gothic LT Std;-inkscape-font-specification:Trade Gothic LT Std Bold" />
    <path
       d="m 213.42898,63.255388 c 0.003,7.978887 -1.59123,13.635726 -4.78214,16.970537 -3.19103,3.334849 -7.99617,4.951911 -14.41546,4.851192 -6.41938,0.100719 -11.22453,-1.516344 -14.41546,-4.851195 -3.191,-3.334811 -4.78504,-8.99165 -4.78213,-16.970534 l 0,-63.2553895058577 -19.05949,0 0,62.4267165058577 c 0.32513,14.360814 4.16349,24.448749 11.51511,30.263836 7.35157,5.815101 16.26555,8.617629 26.74197,8.407579 10.47633,0.21005 19.39031,-2.592477 26.74198,-8.407577 7.35151,-5.815086 11.18987,-15.903021 11.5151,-30.263838 l 0,-62.4267165058577 -19.05948,0 z"
       id="path3820"
       style="font-size:138.11398315px;font-style:normal;font-variant:normal;font-weight:bold;font-stretch:normal;text-align:start;line-height:100%;writing-mode:lr-tb;text-anchor:start;fill:#ffffff;fill-opacity:1;stroke:none;font-family:Trade Gothic LT Std;-inkscape-font-specification:Trade Gothic LT Std Bold" />
    <path
       d="m 274.52846,48.615495 -26.93188,51.101515 20.71683,0 16.57347,-33.83749 16.57346,33.83749 20.71683,0 -26.93188,-51.101515 25.27453,-48.6154965058577 -20.71683,0 L 284.88688,30.79902 269.97076,-1.5058577e-6 l -20.71683,0 z"
       id="path3822"
       style="font-size:138.11398315px;font-style:normal;font-variant:normal;font-weight:bold;font-stretch:normal;text-align:start;line-height:100%;writing-mode:lr-tb;text-anchor:start;fill:#ffffff;fill-opacity:1;stroke:none;font-family:Trade Gothic LT Std;-inkscape-font-specification:Trade Gothic LT Std Bold" />
    <path
       d="m 372.46303,79.775749 0,-26.353694 19.97246,0 0,-9.613298 -19.97246,0 0,-14.2542 26.68519,0 0,-9.613297 -38.1217,0 0,59.834489 z"
       id="path3825"
       style="font-size:56px;font-style:normal;font-variant:normal;font-weight:bold;font-stretch:normal;text-align:start;line-height:100%;writing-mode:lr-tb;text-anchor:start;fill:#000000;fill-opacity:1;stroke:none;font-family:Trade Gothic LT Std;-inkscape-font-specification:Trade Gothic LT Std Bold" />
    <path
       d="m 417.35115,79.775749 0,-47.072008 0.16575,0 13.25971,47.072008 8.7017,0 13.42546,-47.072008 0.16575,0 0,47.072008 9.94479,0 0,-59.834489 -16.24316,0 -11.60225,41.768121 -0.16574,0 -11.51939,-41.768121 -16.07741,0 0,59.834489 z"
       id="path3827"
       style="font-size:56px;font-style:normal;font-variant:normal;font-weight:bold;font-stretch:normal;text-align:start;line-height:100%;writing-mode:lr-tb;text-anchor:start;fill:#000000;fill-opacity:1;stroke:none;font-family:Trade Gothic LT Std;-inkscape-font-specification:Trade Gothic LT Std Bold" />
  </g>
</svg>
